<svg width="102" height="96" viewBox="0 0 102 96" fill="none" xmlns="http://www.w3.org/2000/svg">
<path d="M64.75 10.9667C60.7625 12.5708 57.0958 14.3583 54.2083 16.1458L53.4291 16.65C52.1 17.475 49.9 17.475 48.5708 16.65L47.425 15.9625C39.2666 10.875 24.6916 6.01666 15.0666 5.23749C9.61246 4.77916 5.16663 8.90416 5.16663 14.3583V69.725C5.16663 74.125 8.74163 78.25 13.1416 78.8L14.4708 78.9833C24.4166 80.3125 39.7708 85.3542 48.5708 90.1667L48.7541 90.2583C49.9916 90.9458 51.9625 90.9458 53.1541 90.2583C61.9541 85.4 77.3541 80.3125 87.3458 78.9833L88.8583 78.8C93.2583 78.25 96.8333 74.125 96.8333 69.725V14.4042C96.8333 8.90416 92.3416 4.82499 86.8875 5.28332H86.6125C85.5125 5.37499 84.3208 5.51249 83.0833 5.74166M64.75 10.9667V29.6667L73.9166 23.5708L83.0833 29.6667V5.74166M64.75 10.9667C70.7541 8.58332 77.4458 6.65832 83.0833 5.74166M51 18.1625V86.9125" stroke="white" stroke-width="9" stroke-linecap="round" stroke-linejoin="round"/>
</svg>
