<svg width="54" height="54" viewBox="0 0 54 54" fill="none" xmlns="http://www.w3.org/2000/svg">
<path d="M54 27C54 41.9117 41.9117 54 27 54C12.0883 54 0 41.9117 0 27C0 12.0883 12.0883 0 27 0C41.9117 0 54 12.0883 54 27Z" fill="#D9D9D9"/>
<path d="M10.2853 48.2056C10.4852 40.4027 18.0919 34.3542 27.1375 34.3542C36.1002 34.3542 43.6503 40.2924 43.9824 47.9916C43.5532 48.3392 43.1131 48.674 42.6628 48.9952C42.5571 48.866 42.4937 48.7008 42.4937 48.5208C42.4937 41.6405 35.7455 35.8542 27.1375 35.8542C18.5295 35.8542 11.7812 41.6405 11.7812 48.5208C11.7812 48.759 11.6703 48.9712 11.4972 49.1085C11.0846 48.8187 10.6805 48.5176 10.2853 48.2056Z" fill="black" fill-opacity="0.64"/>
<path fill-rule="evenodd" clip-rule="evenodd" d="M27.1375 9.4375C24.4468 9.4375 21.8697 10.5303 19.9722 12.4699C18.0753 14.409 17.0125 17.0355 17.0125 19.7708C17.0125 22.5061 18.0753 25.1327 19.9722 27.0717C21.8697 29.0114 24.4468 30.1042 27.1375 30.1042C29.8282 30.1042 32.4053 29.0114 34.3027 27.0717C36.1997 25.1327 37.2625 22.5061 37.2625 19.7708C37.2625 17.0355 36.1997 14.409 34.3027 12.4699C32.4053 10.5303 29.8282 9.4375 27.1375 9.4375ZM21.0445 13.5189C22.6633 11.8641 24.8554 10.9375 27.1375 10.9375C29.4196 10.9375 31.6117 11.8641 33.2305 13.5189C34.8499 15.1742 35.7625 17.4228 35.7625 19.7708C35.7625 22.1188 34.8499 24.3674 33.2305 26.0228C31.6117 27.6776 29.4196 28.6042 27.1375 28.6042C24.8554 28.6042 22.6633 27.6776 21.0445 26.0228C19.4251 24.3674 18.5125 22.1188 18.5125 19.7708C18.5125 17.4228 19.4251 15.1742 21.0445 13.5189Z" fill="black" fill-opacity="0.64"/>
</svg>
