<svg width="110" height="110" viewBox="0 0 110 110" fill="none" xmlns="http://www.w3.org/2000/svg">
<path d="M110 6.875C110 31.2812 91.8242 51.4551 68.2773 54.5703C66.752 43.0977 61.7031 32.7422 54.248 24.6426C62.4766 9.94727 78.2031 0 96.25 0H103.125C106.928 0 110 3.07227 110 6.875ZM0 20.625C0 16.8223 3.07227 13.75 6.875 13.75H13.75C40.3262 13.75 61.875 35.2988 61.875 61.875V68.75V103.125C61.875 106.928 58.8027 110 55 110C51.1973 110 48.125 106.928 48.125 103.125V68.75C21.5488 68.75 0 47.2012 0 20.625Z" fill="white"/>
</svg>
